<svg width="18" height="18" viewBox="0 0 18 18" fill="none" xmlns="http://www.w3.org/2000/svg">
<path d="M12.1314 10.5004L9.9752 8.34416C9.8377 8.20666 9.76895 8.03478 9.76895 7.82853C9.76895 7.62228 9.8377 7.44416 9.9752 7.29416C10.1252 7.14416 10.3033 7.06916 10.5096 7.06916C10.7158 7.06916 10.8939 7.14416 11.0439 7.29416L14.4752 10.7254C14.6252 10.8754 14.7002 11.0504 14.7002 11.2504C14.7002 11.4504 14.6252 11.6254 14.4752 11.7754L11.0252 15.2254C10.8877 15.3629 10.7158 15.4348 10.5096 15.441C10.3033 15.4473 10.1252 15.3754 9.97519 15.2254C9.8377 15.0879 9.76895 14.9129 9.76895 14.7004C9.76895 14.4879 9.8377 14.3129 9.9752 14.1754L12.1314 12.0004L5.25019 12.0004C4.8377 12.0004 4.48457 11.8535 4.19082 11.5598C3.89707 11.266 3.75019 10.9129 3.75019 10.5004L3.7502 3.75041C3.7502 3.53791 3.82207 3.35978 3.96582 3.21603C4.10957 3.07228 4.2877 3.00041 4.5002 3.00041C4.7127 3.00041 4.89082 3.07228 5.03457 3.21603C5.17832 3.35978 5.2502 3.53791 5.2502 3.75041L5.25019 10.5004L12.1314 10.5004Z" fill="#454545" fill-opacity="0.6"/>
</svg>
