<svg width="20" height="21" viewBox="0 0 20 21" fill="none" xmlns="http://www.w3.org/2000/svg">
<path d="M16.575 6.6C16.4917 6.6 16.4043 6.575 16.313 6.525C16.221 6.475 16.1583 6.4 16.125 6.3L15.325 4.55L13.575 3.75C13.475 3.71667 13.4 3.654 13.35 3.562C13.3 3.47067 13.275 3.38333 13.275 3.3C13.275 3.21667 13.3 3.129 13.35 3.037C13.4 2.94567 13.475 2.88333 13.575 2.85L15.325 2.05L16.125 0.3C16.1583 0.2 16.221 0.125 16.313 0.0749999C16.4043 0.0249999 16.4917 0 16.575 0C16.6583 0 16.746 0.0249999 16.838 0.0749999C16.9293 0.125 16.9917 0.2 17.025 0.3L17.825 2.05L19.575 2.85C19.675 2.88333 19.75 2.94567 19.8 3.037C19.85 3.129 19.875 3.21667 19.875 3.3C19.875 3.38333 19.85 3.47067 19.8 3.562C19.75 3.654 19.675 3.71667 19.575 3.75L17.825 4.55L17.025 6.3C16.9917 6.4 16.9293 6.475 16.838 6.525C16.746 6.575 16.6583 6.6 16.575 6.6ZM16.575 20.6C16.4917 20.6 16.4043 20.575 16.313 20.525C16.221 20.475 16.1583 20.4 16.125 20.3L15.325 18.55L13.575 17.75C13.475 17.7167 13.4 17.654 13.35 17.562C13.3 17.4707 13.275 17.3833 13.275 17.3C13.275 17.2167 13.3 17.1293 13.35 17.038C13.4 16.946 13.475 16.8833 13.575 16.85L15.325 16.05L16.125 14.3C16.1583 14.2 16.221 14.125 16.313 14.075C16.4043 14.025 16.4917 14 16.575 14C16.6583 14 16.746 14.025 16.838 14.075C16.9293 14.125 16.9917 14.2 17.025 14.3L17.825 16.05L19.575 16.85C19.675 16.8833 19.75 16.946 19.8 17.038C19.85 17.1293 19.875 17.2167 19.875 17.3C19.875 17.3833 19.85 17.4707 19.8 17.562C19.75 17.654 19.675 17.7167 19.575 17.75L17.825 18.55L17.025 20.3C16.9917 20.4 16.9293 20.475 16.838 20.525C16.746 20.575 16.6583 20.6 16.575 20.6ZM6.575 16.875C6.39167 16.875 6.21667 16.825 6.05 16.725C5.88333 16.625 5.75833 16.4833 5.675 16.3L4.075 12.8L0.575 11.2C0.391667 11.1167 0.25 10.9917 0.15 10.825C0.0500001 10.6583 0 10.4833 0 10.3C0 10.1167 0.0500001 9.94167 0.15 9.775C0.25 9.60833 0.391667 9.48333 0.575 9.4L4.075 7.8L5.675 4.3C5.75833 4.11667 5.88333 3.975 6.05 3.875C6.21667 3.775 6.39167 3.725 6.575 3.725C6.75833 3.725 6.93333 3.775 7.1 3.875C7.26667 3.975 7.39167 4.11667 7.475 4.3L9.075 7.8L12.575 9.4C12.7583 9.48333 12.9 9.60833 13 9.775C13.1 9.94167 13.15 10.1167 13.15 10.3C13.15 10.4833 13.1 10.6583 13 10.825C12.9 10.9917 12.7583 11.1167 12.575 11.2L9.075 12.8L7.475 16.3C7.39167 16.4833 7.26667 16.625 7.1 16.725C6.93333 16.825 6.75833 16.875 6.575 16.875Z" fill="black"/>
</svg>
