<svg width="18" height="18" viewBox="0 0 18 18" fill="none" xmlns="http://www.w3.org/2000/svg">
<path d="M5.625 16.5C4.9 16.5 4.28125 16.2438 3.76875 15.7313C3.25625 15.2188 3 14.6 3 13.875V4.125C3 3.4 3.25625 2.78125 3.76875 2.26875C4.28125 1.75625 4.9 1.5 5.625 1.5H13.5C13.9125 1.5 14.2656 1.64687 14.5594 1.94063C14.8531 2.23438 15 2.5875 15 3V12.0188C15 12.2188 14.95 12.4 14.85 12.5625C14.75 12.725 14.6125 12.85 14.4375 12.9375C14.2625 13.025 14.125 13.1531 14.025 13.3219C13.925 13.4906 13.875 13.675 13.875 13.875C13.875 14.075 13.925 14.2625 14.025 14.4375C14.125 14.6125 14.2625 14.7375 14.4375 14.8125C14.6 14.875 14.7344 14.9688 14.8406 15.0938C14.9469 15.2188 15 15.3688 15 15.5438V15.7313C15 15.9438 14.9281 16.125 14.7844 16.275C14.6406 16.425 14.4625 16.5 14.25 16.5H5.625ZM7.93125 8.41875H10.05L10.425 9.46875C10.45 9.55625 10.4969 9.625 10.5656 9.675C10.6344 9.725 10.7188 9.75 10.8188 9.75C10.9688 9.75 11.0875 9.6875 11.175 9.5625C11.2625 9.4375 11.275 9.30625 11.2125 9.16875L9.5625 4.78125C9.5375 4.69375 9.4875 4.625 9.4125 4.575C9.3375 4.525 9.25 4.5 9.15 4.5H8.8125C8.7125 4.5 8.625 4.525 8.55 4.575C8.475 4.625 8.425 4.69375 8.4 4.78125L6.75 9.1875C6.6875 9.325 6.70313 9.45313 6.79688 9.57188C6.89063 9.69063 7.0125 9.75 7.1625 9.75C7.2625 9.75 7.34688 9.725 7.41563 9.675C7.48438 9.625 7.53125 9.55625 7.55625 9.46875L7.93125 8.41875ZM8.19375 7.65L8.9625 5.475H9.01875L9.76875 7.65H8.19375ZM5.625 15H12.6188C12.5438 14.825 12.4844 14.6469 12.4406 14.4656C12.3969 14.2844 12.375 14.0875 12.375 13.875C12.375 13.675 12.3938 13.4813 12.4313 13.2938C12.4688 13.1063 12.5312 12.925 12.6188 12.75H5.625C5.3 12.75 5.03125 12.8594 4.81875 13.0781C4.60625 13.2969 4.5 13.5625 4.5 13.875C4.5 14.2 4.60625 14.4688 4.81875 14.6813C5.03125 14.8938 5.3 15 5.625 15Z" fill="#475569"/>
</svg>
