<svg width="29" height="29" viewBox="0 0 29 29" fill="none" xmlns="http://www.w3.org/2000/svg">
<rect x="0.376259" y="0.375282" width="27.8014" height="27.8014" rx="13.9007" stroke="#DFDFDF" stroke-width="0.751389"/>
<circle cx="14.277" cy="14.276" r="13.525" fill="#554BBD"/>
<mask id="mask0_6877_3206" style="mask-type:alpha" maskUnits="userSpaceOnUse" x="0" y="0" width="28" height="28">
<circle cx="14.277" cy="14.276" r="13.525" fill="#FFEDEF"/>
</mask>
<g mask="url(#mask0_6877_3206)">
<path d="M18.778 26.4491C17.753 25.0254 16.951 21.5611 16.856 20.1849L11.9799 18.085L9.95117 26.4491H18.778Z" fill="#FC909F" stroke="black" stroke-width="0.284737"/>
<mask id="mask1_6877_3206" style="mask-type:alpha" maskUnits="userSpaceOnUse" x="9" y="18" width="10" height="9">
<path d="M18.778 26.4491C17.753 25.0254 16.951 21.5611 16.856 20.1849L11.9799 18.085L9.95117 26.4491H18.778Z" fill="#FFEDEF"/>
</mask>
<g mask="url(#mask1_6877_3206)">
<ellipse cx="15.987" cy="18.7619" rx="4.19987" ry="3.84395" fill="black"/>
</g>
<g clip-path="url(#clip0_6877_3206)">
<path d="M18.1179 26.5556C17.0928 25.132 16.2908 22.3795 16.1959 21.0033L11.3198 18.9033L9.29102 26.5556H18.1179Z" fill="#FFC3B1" stroke="black" stroke-width="0.284737"/>
<mask id="mask2_6877_3206" style="mask-type:alpha" maskUnits="userSpaceOnUse" x="9" y="18" width="10" height="10">
<path d="M18.1179 27.2675C17.0928 25.8438 16.2908 22.3795 16.1959 21.0033L11.3198 18.9033L9.29102 27.2675H18.1179Z" fill="#AC6651"/>
</mask>
<g mask="url(#mask2_6877_3206)">
<g style="mix-blend-mode:multiply">
<ellipse cx="15.9811" cy="18.7609" rx="4.19987" ry="3.84395" fill="black"/>
</g>
</g>
<mask id="path-10-inside-1_6877_3206" fill="white">
<path d="M12.3926 5.5293C15.364 4.81753 18.3496 6.64972 19.0615 9.62109C19.068 9.64796 19.0721 9.67528 19.0781 9.70215L20.2207 14.4697C20.226 14.4906 20.2323 14.5112 20.2373 14.5322C20.2422 14.5525 20.2454 14.5734 20.25 14.5938L20.2598 14.6328H20.2588C20.9065 17.5709 19.0844 20.498 16.1465 21.2021C13.2084 21.9061 10.2571 20.1226 9.50293 17.21L9.49902 17.2109L8.29004 12.1631L8.29297 12.1621C7.60479 9.20279 9.43334 6.2383 12.3926 5.5293Z"/>
</mask>
<path d="M12.3926 5.5293C15.364 4.81753 18.3496 6.64972 19.0615 9.62109C19.068 9.64796 19.0721 9.67528 19.0781 9.70215L20.2207 14.4697C20.226 14.4906 20.2323 14.5112 20.2373 14.5322C20.2422 14.5525 20.2454 14.5734 20.25 14.5938L20.2598 14.6328H20.2588C20.9065 17.5709 19.0844 20.498 16.1465 21.2021C13.2084 21.9061 10.2571 20.1226 9.50293 17.21L9.49902 17.2109L8.29004 12.1631L8.29297 12.1621C7.60479 9.20279 9.43334 6.2383 12.3926 5.5293Z" fill="#FFC3B1"/>
<path d="M12.3926 5.5293L12.3262 5.25239L12.3262 5.2524L12.3926 5.5293ZM19.0615 9.62109L19.3384 9.55476L19.3384 9.55475L19.0615 9.62109ZM19.0781 9.70215L18.8002 9.76442L18.8012 9.76851L19.0781 9.70215ZM20.2207 14.4697L19.9438 14.5361L19.9446 14.5392L20.2207 14.4697ZM20.2373 14.5322L20.5142 14.4659L20.5142 14.4659L20.2373 14.5322ZM20.25 14.5938L19.9723 14.657L19.9738 14.6628L20.25 14.5938ZM20.2598 14.6328V14.9175H20.6244L20.536 14.5638L20.2598 14.6328ZM20.2588 14.6328V14.3481H19.9044L19.9807 14.6941L20.2588 14.6328ZM16.1465 21.2021L16.2128 21.479L16.2128 21.479L16.1465 21.2021ZM9.50293 17.21L9.77858 17.1386L9.7078 16.8652L9.43387 16.9337L9.50293 17.21ZM9.49902 17.2109L9.22212 17.2773L9.2891 17.5569L9.56808 17.4872L9.49902 17.2109ZM8.29004 12.1631L8.2 11.893L7.95233 11.9755L8.01313 12.2294L8.29004 12.1631ZM8.29297 12.1621L8.38301 12.4322L8.62905 12.3502L8.57031 12.0976L8.29297 12.1621ZM12.3926 5.5293L12.4589 5.8062C15.2773 5.13108 18.1093 6.86894 18.7846 9.68744L19.0615 9.62109L19.3384 9.55475C18.5899 6.4305 15.4506 4.50399 12.3262 5.25239L12.3926 5.5293ZM19.0615 9.62109L18.7846 9.68742C18.7861 9.6938 18.7877 9.70155 18.7903 9.71516C18.7926 9.72689 18.7961 9.7456 18.8003 9.76441L19.0781 9.70215L19.356 9.63988C19.3542 9.63183 19.3526 9.62344 19.3496 9.60808C19.3471 9.5946 19.3433 9.57525 19.3384 9.55476L19.0615 9.62109ZM19.0781 9.70215L18.8012 9.76851L19.9438 14.5361L20.2207 14.4697L20.4976 14.4034L19.355 9.63579L19.0781 9.70215ZM20.2207 14.4697L19.9446 14.5392C19.9482 14.5535 19.9521 14.5675 19.9546 14.5766C19.9575 14.587 19.9591 14.5933 19.9604 14.5986L20.2373 14.5322L20.5142 14.4659C20.5104 14.4502 20.5065 14.4357 20.5036 14.4253C20.5004 14.4135 20.4985 14.4068 20.4968 14.4002L20.2207 14.4697ZM20.2373 14.5322L19.9604 14.5986C19.9612 14.6018 19.9621 14.6063 19.9642 14.6169C19.9658 14.6256 19.9688 14.6412 19.9724 14.657L20.25 14.5938L20.5276 14.5305C20.5266 14.526 20.5256 14.521 20.5233 14.5091C20.5214 14.4991 20.5183 14.483 20.5142 14.4659L20.2373 14.5322ZM20.25 14.5938L19.9738 14.6628L19.9835 14.7019L20.2598 14.6328L20.536 14.5638L20.5262 14.5247L20.25 14.5938ZM20.2598 14.6328V14.3481H20.2588V14.6328V14.9175H20.2598V14.6328ZM20.2588 14.6328L19.9807 14.6941C20.5951 17.481 18.8667 20.2574 16.0801 20.9253L16.1465 21.2021L16.2128 21.479C19.3021 20.7387 21.2179 17.6608 20.5368 14.5715L20.2588 14.6328ZM16.1465 21.2021L16.0801 20.9252C13.2934 21.5929 10.4939 19.9013 9.77858 17.1386L9.50293 17.21L9.22728 17.2813C10.0203 20.3438 13.1234 22.2192 16.2128 21.479L16.1465 21.2021ZM9.50293 17.21L9.43387 16.9337L9.42996 16.9347L9.49902 17.2109L9.56808 17.4872L9.57199 17.4862L9.50293 17.21ZM9.49902 17.2109L9.77593 17.1446L8.56694 12.0968L8.29004 12.1631L8.01313 12.2294L9.22212 17.2773L9.49902 17.2109ZM8.29004 12.1631L8.38008 12.4332L8.38301 12.4322L8.29297 12.1621L8.20293 11.892L8.2 11.893L8.29004 12.1631ZM8.29297 12.1621L8.57031 12.0976C7.91755 9.29061 9.65202 6.47871 12.4589 5.8062L12.3926 5.5293L12.3262 5.2524C9.21466 5.9979 7.29203 9.11497 8.01563 12.2266L8.29297 12.1621Z" fill="black" mask="url(#path-10-inside-1_6877_3206)"/>
</g>
<path d="M15.4121 16.3892C15.7087 16.2231 16.907 16.0119 16.907 16.496C16.907 17.1011 16.0884 17.0655 16.0884 17.0655C16.0884 17.0655 17.0169 16.8404 16.8358 17.4926C16.6578 18.1332 16.1595 17.8841 16.0172 17.8129" stroke="black" stroke-width="0.284737"/>
<path d="M14.9141 6.94447C15.9581 6.89701 17.7899 6.31805 16.7649 4.38184" stroke="black" stroke-width="0.284737"/>
<path d="M13.0645 6.80189C14.1085 6.75443 15.9403 6.17547 14.9152 4.23926" stroke="black" stroke-width="0.284737"/>
<path d="M10.502 7.58509C11.546 7.53764 13.3778 6.95867 12.3527 5.02246" stroke="black" stroke-width="0.284737"/>
<path d="M16.3398 10.1625C16.7432 9.97268 17.6923 9.79946 18.2618 10.6252" stroke="#FC909F" stroke-width="0.284737" stroke-linecap="round"/>
<path d="M10.9718 11.964C11.1192 11.5433 11.661 10.745 12.6491 10.9177" stroke="#FC909F" stroke-width="0.284737" stroke-linecap="round"/>
<path d="M11.1525 11.5318L10.7148 11.1455" stroke="#FC909F" stroke-width="0.284737" stroke-linecap="round"/>
<path d="M18.0467 10.2291L18.4844 9.84277" stroke="#FC909F" stroke-width="0.284737" stroke-linecap="round"/>
<path d="M11.6103 11.1298L11.3223 10.6221" stroke="#FC909F" stroke-width="0.284737" stroke-linecap="round"/>
<path d="M17.5147 9.96964L17.8027 9.46191" stroke="#FC909F" stroke-width="0.284737" stroke-linecap="round"/>
<path d="M12.184 10.8729L12.0273 10.3105" stroke="#FC909F" stroke-width="0.284737" stroke-linecap="round"/>
<path d="M16.8707 9.92659L17.0273 9.36426" stroke="#FC909F" stroke-width="0.284737" stroke-linecap="round"/>
<path d="M13.4165 12.3606C13.5487 12.8134 13.0579 12.4657 12.605 12.598C12.1522 12.7302 11.9088 13.2923 11.7766 12.8395C11.6443 12.3866 11.9042 11.9123 12.3571 11.7801C12.8099 11.6478 13.2842 11.9077 13.4165 12.3606Z" fill="#6BD9E9"/>
<path d="M17.9562 11.7062C18.0725 12.1634 17.6221 11.8144 17.1649 11.9308C16.7077 12.0472 16.4169 12.5848 16.3005 12.1276C16.1842 11.6704 16.4605 11.2055 16.9177 11.0891C17.3749 10.9727 17.8398 11.249 17.9562 11.7062Z" fill="#6BD9E9"/>
<path d="M12.5791 12.1787C12.9427 12.1355 13.2766 12.3529 13.395 12.6835C13.4137 12.7358 13.361 12.7811 13.3073 12.7669C13.1491 12.7249 12.9716 12.7115 12.7871 12.7334C12.4743 12.7706 12.2045 12.9016 12.029 13.0803C11.988 13.122 11.9145 13.1091 11.9064 13.0512C11.9056 13.0459 11.9049 13.0405 11.9043 13.0352C11.8541 12.6123 12.1562 12.229 12.5791 12.1787Z" fill="black"/>
<path d="M17.1328 11.4775C17.4919 11.4349 17.8212 11.6489 17.9395 11.9747C17.9584 12.0268 17.9059 12.0723 17.8522 12.0582C17.6967 12.0174 17.5227 12.0039 17.3418 12.0254C17.0309 12.0623 16.7631 12.1936 16.5893 12.3717C16.5484 12.4136 16.4751 12.4008 16.467 12.3429C16.4662 12.3373 16.4655 12.3318 16.4648 12.3262C16.4152 11.9073 16.7139 11.5273 17.1328 11.4775Z" fill="black"/>
<path d="M15.8312 13.2569C15.8457 13.5304 15.9521 14.1169 16.2618 14.2746C16.6489 14.4718 16.3454 15.1255 15.6207 15.0836" stroke="black" stroke-width="0.284737"/>
<path d="M14.1895 3.72461C15.2663 3.72464 16.1322 3.8482 16.8281 4.26855C17.5198 4.6864 18.0642 5.41107 18.4688 6.65918C18.5099 6.78621 18.6463 6.86344 18.7793 6.82031C19.5848 6.55913 20.8061 6.82317 21.8369 7.49609C22.8632 8.16613 23.6601 9.21564 23.6602 10.4805C23.6602 11.5784 23.4724 12.3205 23.2891 13.043C23.0671 13.9178 22.8526 14.763 23.0039 16.1396C23.0544 16.5987 23.1564 16.9244 23.2998 17.1943C23.4419 17.4618 23.6216 17.6683 23.8105 17.8867C24.257 18.4028 24.4607 18.8277 24.5264 19.2012C24.5918 19.5738 24.5229 19.912 24.3955 20.2627C24.3315 20.4389 24.2544 20.6163 24.1719 20.8027C24.09 20.9877 24.0031 21.1814 23.9258 21.3857C23.7704 21.7965 23.6491 22.2549 23.6611 22.7979C23.6714 23.2585 23.7529 23.5745 23.875 23.8135C23.9969 24.0519 24.1551 24.2043 24.292 24.3369C24.416 24.4571 24.5193 24.5584 24.5957 24.7002C24.6639 24.8269 24.7122 24.9942 24.7207 25.2451C23.0122 26.2609 21.3216 26.6825 20.0518 26.8477C19.409 26.9313 18.8748 26.9489 18.502 26.9463C18.3156 26.945 18.1692 26.9388 18.0703 26.9326C18.0363 26.9305 18.0079 26.9276 17.9854 26.9258C17.5474 26.2575 17.147 25.1552 16.8379 24.0225C16.5372 22.9205 16.3262 21.8076 16.2471 21.0732C18.8809 20.3114 20.533 17.5985 20.1436 14.7939L20.1416 14.7695C20.141 14.7653 20.1405 14.7599 20.1396 14.7549C20.138 14.7447 20.1348 14.7312 20.1318 14.7148C20.1258 14.6816 20.117 14.6348 20.1055 14.5762C20.0823 14.4585 20.0483 14.292 20.0049 14.0908C19.9181 13.6885 19.793 13.1455 19.6406 12.5693C19.4883 11.9935 19.3082 11.3824 19.1104 10.8457C18.914 10.313 18.6951 9.83943 18.4619 9.54785L18.4414 9.52148L18.4102 9.50781L17.7822 9.21973C17.1159 8.91307 16.3251 8.58439 15.3281 8.54492C13.9916 8.49207 12.2986 8.95594 10.0107 10.6152L9.86719 10.7197L10.0059 10.8311C11.1395 11.7446 11.3844 12.9567 11.332 13.9854C11.2921 14.7694 11.0791 15.4363 10.959 15.7705C10.8768 15.65 10.8236 15.499 10.7842 15.3213C10.7554 15.1915 10.735 15.054 10.7129 14.9102C10.6911 14.7683 10.6677 14.6204 10.6338 14.4775C10.566 14.192 10.4515 13.9062 10.1973 13.7041C9.94247 13.5016 9.57096 13.4015 9.03027 13.4316L8.87207 13.4404L8.90527 13.5957L9.71289 17.3896V17.3906L9.7168 17.4033C10.0053 18.3179 10.5005 19.1101 11.1328 19.7363L11.1338 19.7383C11.1392 19.7473 11.147 19.7609 11.1572 19.7783C11.1778 19.8135 11.2083 19.865 11.2441 19.9297C11.316 20.0593 11.4126 20.2416 11.5117 20.4512C11.712 20.8746 11.9141 21.3948 11.9531 21.8193C11.9927 22.25 11.8847 22.8056 11.7607 23.2646C11.6994 23.4918 11.6356 23.6915 11.5869 23.834C11.5768 23.8636 11.5662 23.8906 11.5576 23.915C11.1998 23.7443 10.8804 23.7576 10.6064 23.917C10.3101 24.0895 10.0923 24.4191 9.93066 24.7861C9.63544 25.4567 9.49522 26.3265 9.42969 26.8662C7.6586 26.46 6.2907 26.0477 5.36035 25.7344C4.88264 25.5735 4.51992 25.4391 4.27734 25.3447C4.15611 25.2976 4.06468 25.2605 4.00391 25.2354C3.98864 25.229 3.97527 25.2235 3.96387 25.2188C3.95302 25.191 3.93892 25.1519 3.9209 25.1025C3.88054 24.9921 3.82423 24.8288 3.76172 24.6221C3.63665 24.2084 3.4859 23.6182 3.38574 22.915C3.18527 21.5073 3.18673 19.6542 3.9834 17.8525C4.60985 16.4361 5.99703 14.8312 5.99707 11.0693C5.99707 8.89176 7.05431 7.05745 8.61035 5.76465C10.1678 4.47084 12.2194 3.72461 14.1895 3.72461Z" fill="#272727" stroke="black" stroke-width="0.272055"/>
<path d="M9.61598 13.5768C9.45012 13.5222 9.27107 13.4932 9.08779 13.4932C8.34083 13.4932 7.7353 13.9559 7.80648 14.8101C7.88062 15.6999 8.41201 16.0202 9.15898 16.0202C9.24209 16.0202 9.32345 16.0129 9.40243 15.9989C9.4886 15.9837 9.57192 15.9605 9.65157 15.9301" stroke="black" stroke-width="0.569474"/>
<path d="M9.68716 15.916C9.52489 15.9831 9.34638 16.0202 9.15898 16.0202C8.41201 16.0202 7.88062 15.6999 7.80648 14.8101C7.7353 13.9559 8.34083 13.4932 9.08779 13.4932C9.31113 13.4932 9.52819 13.5363 9.72275 13.6163L9.68716 15.916Z" fill="#FFC3B1"/>
<path d="M9.40262 14.0978C9.11788 13.9673 8.49146 13.8985 8.26367 14.6673" stroke="black" stroke-width="0.284737"/>
<path d="M8.6543 14.1338C8.80853 14.2643 9.10276 14.6677 9.04581 15.2371" stroke="black" stroke-width="0.284737"/>
<path d="M9.36858 15.6279C10.3121 15.6279 11.077 16.3928 11.077 17.3364C11.077 18.2799 10.3121 19.0448 9.36858 19.0448C8.42504 19.0448 7.66016 18.2799 7.66016 17.3364C7.66016 16.8814 7.9093 16.5177 8.12794 16.1618L8.19404 16.055" stroke="#F4D150" stroke-width="0.284737"/>
<path d="M17.4033 22.6592C17.709 22.5854 18.036 22.6063 18.3799 22.708C19.0724 22.9129 19.813 23.4384 20.5361 24.1133C21.8611 25.3499 23.0766 27.042 23.7646 28.0059H4.33789C4.65959 27.3507 5.25997 26.1245 6.04297 25.0283C6.48378 24.4112 6.97742 23.8431 7.50488 23.4434C8.03244 23.0436 8.58136 22.8214 9.13867 22.8701C10.3117 22.9728 11.3446 23.6662 12.3955 24.3066C13.4266 24.935 14.4859 25.519 15.6504 25.2637C16.0441 25.1773 16.3095 24.9925 16.4766 24.7539C16.6413 24.5185 16.7007 24.2442 16.7109 23.9941C16.7211 23.7439 16.6824 23.507 16.6426 23.335C16.6241 23.255 16.6051 23.188 16.5898 23.1387C16.848 22.8787 17.1211 22.7273 17.4033 22.6592Z" fill="white" stroke="black" stroke-width="0.304263"/>
</g>
<defs>
<clipPath id="clip0_6877_3206">
<rect width="14.2368" height="22.7789" fill="white" transform="translate(7.1543 3.81152)"/>
</clipPath>
</defs>
</svg>
