<svg width="17" height="6" viewBox="0 0 17 6" fill="none" xmlns="http://www.w3.org/2000/svg">
<path d="M1.98489 5.6748H0.000260338V0.0763035H2.00129C2.56442 0.0763035 3.04918 0.188383 3.45559 0.412542C3.86199 0.634878 4.17453 0.954714 4.39323 1.37205C4.61374 1.78939 4.724 2.28873 4.724 2.87009C4.724 3.45326 4.61374 3.95443 4.39323 4.37359C4.17453 4.79275 3.86016 5.11441 3.45012 5.33857C3.04189 5.56273 2.55348 5.6748 1.98489 5.6748ZM1.18393 4.66062H1.93568C2.28559 4.66062 2.57991 4.59866 2.81865 4.47474C3.05921 4.34899 3.23963 4.1549 3.35991 3.89247C3.48201 3.62822 3.54306 3.28742 3.54306 2.87009C3.54306 2.4564 3.48201 2.11833 3.35991 1.85591C3.23963 1.59348 3.06012 1.4003 2.82138 1.27637C2.58264 1.15245 2.28832 1.09049 1.93841 1.09049H1.18393V4.66062ZM10.6993 2.87555C10.6993 3.48607 10.5836 4.00546 10.3522 4.43373C10.1225 4.862 9.80908 5.18913 9.41179 5.41511C9.01633 5.63927 8.57165 5.75135 8.07778 5.75135C7.58025 5.75135 7.13376 5.63836 6.73829 5.41237C6.34282 5.18639 6.03028 4.85927 5.80065 4.431C5.57103 4.00273 5.45621 3.48425 5.45621 2.87555C5.45621 2.26504 5.57103 1.74565 5.80065 1.31738C6.03028 0.889107 6.34282 0.562892 6.73829 0.338733C7.13376 0.112752 7.58025 -0.000238559 8.07778 -0.000238559C8.57165 -0.000238559 9.01633 0.112752 9.41179 0.338733C9.80908 0.562892 10.1225 0.889107 10.3522 1.31738C10.5836 1.74565 10.6993 2.26504 10.6993 2.87555ZM9.49927 2.87555C9.49927 2.48009 9.44004 2.14658 9.32158 1.87504C9.20495 1.6035 9.04002 1.39756 8.82679 1.25724C8.61357 1.11691 8.3639 1.04675 8.07778 1.04675C7.79166 1.04675 7.54198 1.11691 7.32876 1.25724C7.11553 1.39756 6.94969 1.6035 6.83124 1.87504C6.7146 2.14658 6.65628 2.48009 6.65628 2.87555C6.65628 3.27102 6.7146 3.60453 6.83124 3.87607C6.94969 4.14761 7.11553 4.35354 7.32876 4.49387C7.54198 4.6342 7.79166 4.70436 8.07778 4.70436C8.3639 4.70436 8.61357 4.6342 8.82679 4.49387C9.04002 4.35354 9.20495 4.14761 9.32158 3.87607C9.44004 3.60453 9.49927 3.27102 9.49927 2.87555ZM16.4697 2.03633H15.2723C15.2505 1.88142 15.2058 1.74383 15.1384 1.62355C15.0709 1.50144 14.9844 1.39756 14.8787 1.31191C14.773 1.22626 14.6509 1.16065 14.5124 1.11509C14.3757 1.06953 14.2272 1.04675 14.0668 1.04675C13.777 1.04675 13.5246 1.11873 13.3096 1.2627C13.0945 1.40485 12.9278 1.61261 12.8093 1.88598C12.6909 2.15752 12.6316 2.48738 12.6316 2.87555C12.6316 3.27467 12.6909 3.60999 12.8093 3.88153C12.9296 4.15308 13.0973 4.3581 13.3123 4.4966C13.5274 4.63511 13.7761 4.70436 14.0586 4.70436C14.2171 4.70436 14.3638 4.6834 14.4987 4.64149C14.6354 4.59957 14.7566 4.53852 14.8623 4.45833C14.968 4.37632 15.0555 4.277 15.1247 4.16037C15.1958 4.04373 15.245 3.91069 15.2723 3.76125L16.4697 3.76672C16.4387 4.02368 16.3612 4.27153 16.2373 4.51027C16.1152 4.74719 15.9503 4.9595 15.7425 5.14721C15.5366 5.3331 15.2906 5.48072 15.0044 5.59006C14.7201 5.69759 14.3985 5.75135 14.0395 5.75135C13.5401 5.75135 13.0936 5.63836 12.7 5.41237C12.3081 5.18639 11.9983 4.85927 11.7705 4.431C11.5445 4.00273 11.4316 3.48425 11.4316 2.87555C11.4316 2.26504 11.5464 1.74565 11.776 1.31738C12.0056 0.889107 12.3173 0.562892 12.7109 0.338733C13.1045 0.112752 13.5474 -0.000238559 14.0395 -0.000238559C14.3638 -0.000238559 14.6645 0.0453222 14.9416 0.136444C15.2204 0.227565 15.4673 0.360602 15.6824 0.535555C15.8974 0.708686 16.0724 0.920999 16.2072 1.17249C16.3439 1.42399 16.4314 1.71193 16.4697 2.03633Z" fill="white"/>
</svg>
