<svg width="11" height="15" viewBox="0 0 11 15" fill="none" xmlns="http://www.w3.org/2000/svg">
<path d="M5.33333 9.71667C5.14444 9.71667 4.98622 9.65267 4.85867 9.52467C4.73067 9.39711 4.66667 9.23889 4.66667 9.05V2.26667L4.06667 2.86667C3.94444 2.98889 3.79178 3.05 3.60867 3.05C3.42511 3.05 3.26667 2.98333 3.13333 2.85C3.01111 2.71667 2.95 2.55822 2.95 2.37467C2.95 2.19156 3.01111 2.03889 3.13333 1.91667L4.86667 0.183333C4.92222 0.127778 4.99178 0.0833334 5.07533 0.05C5.15844 0.0166667 5.24444 0 5.33333 0C5.42222 0 5.50844 0.0166667 5.592 0.05C5.67511 0.0833334 5.74444 0.127778 5.8 0.183333L7.53333 1.91667C7.66667 2.05 7.73333 2.21111 7.73333 2.4C7.73333 2.58889 7.66667 2.74444 7.53333 2.86667C7.4 2.98889 7.24178 3.05 7.05867 3.05C6.87511 3.05 6.72222 2.98889 6.6 2.86667L6 2.26667V9.05C6 9.23889 5.93622 9.39711 5.80867 9.52467C5.68067 9.65267 5.52222 9.71667 5.33333 9.71667ZM1.33333 14.3833C0.966667 14.3833 0.652889 14.2529 0.392 13.992C0.130667 13.7307 0 13.4167 0 13.05V5.71667C0 5.35 0.130667 5.036 0.392 4.77467C0.652889 4.51378 0.966667 4.38333 1.33333 4.38333H2.66667C2.85556 4.38333 3.014 4.44711 3.142 4.57467C3.26956 4.70267 3.33333 4.86111 3.33333 5.05C3.33333 5.23889 3.26956 5.39711 3.142 5.52467C3.014 5.65267 2.85556 5.71667 2.66667 5.71667H1.33333V13.05H9.33333V5.71667H8C7.81111 5.71667 7.65289 5.65267 7.52533 5.52467C7.39733 5.39711 7.33333 5.23889 7.33333 5.05C7.33333 4.86111 7.39733 4.70267 7.52533 4.57467C7.65289 4.44711 7.81111 4.38333 8 4.38333H9.33333C9.7 4.38333 10.014 4.51378 10.2753 4.77467C10.5362 5.036 10.6667 5.35 10.6667 5.71667V13.05C10.6667 13.4167 10.5362 13.7307 10.2753 13.992C10.014 14.2529 9.7 14.3833 9.33333 14.3833H1.33333Z" fill="black"/>
</svg>
