<svg width="21" height="22" viewBox="0 0 21 22" fill="none" xmlns="http://www.w3.org/2000/svg">
<path d="M17.1397 6.82487C17.0536 6.82487 16.9633 6.79902 16.8688 6.74732C16.7737 6.69561 16.7089 6.61806 16.6744 6.51465L15.8471 4.70503L14.0375 3.87777C13.9341 3.8433 13.8566 3.7785 13.8049 3.68336C13.7532 3.58892 13.7273 3.49861 13.7273 3.41244C13.7273 3.32626 13.7532 3.23561 13.8049 3.14048C13.8566 3.04603 13.9341 2.98157 14.0375 2.9471L15.8471 2.11985L16.6744 0.310221C16.7089 0.206814 16.7737 0.129259 16.8688 0.0775553C16.9633 0.0258517 17.0536 0 17.1397 0C17.2259 0 17.3166 0.0258517 17.4117 0.0775553C17.5061 0.129259 17.5706 0.206814 17.6051 0.310221L18.4323 2.11985L20.242 2.9471C20.3454 2.98157 20.4229 3.04603 20.4746 3.14048C20.5263 3.23561 20.5522 3.32626 20.5522 3.41244C20.5522 3.49861 20.5263 3.58892 20.4746 3.68336C20.4229 3.7785 20.3454 3.8433 20.242 3.87777L18.4323 4.70503L17.6051 6.51465C17.5706 6.61806 17.5061 6.69561 17.4117 6.74732C17.3166 6.79902 17.2259 6.82487 17.1397 6.82487ZM17.1397 21.3019C17.0536 21.3019 16.9633 21.276 16.8688 21.2243C16.7737 21.1726 16.7089 21.0951 16.6744 20.9917L15.8471 19.182L14.0375 18.3548C13.9341 18.3203 13.8566 18.2555 13.8049 18.1604C13.7532 18.0659 13.7273 17.9756 13.7273 17.8894C13.7273 17.8033 13.7532 17.713 13.8049 17.6185C13.8566 17.5234 13.9341 17.4586 14.0375 17.4241L15.8471 16.5968L16.6744 14.7872C16.7089 14.6838 16.7737 14.6063 16.8688 14.5546C16.9633 14.5029 17.0536 14.477 17.1397 14.477C17.2259 14.477 17.3166 14.5029 17.4117 14.5546C17.5061 14.6063 17.5706 14.6838 17.6051 14.7872L18.4323 16.5968L20.242 17.4241C20.3454 17.4586 20.4229 17.5234 20.4746 17.6185C20.5263 17.713 20.5522 17.8033 20.5522 17.8894C20.5522 17.9756 20.5263 18.0659 20.4746 18.1604C20.4229 18.2555 20.3454 18.3203 20.242 18.3548L18.4323 19.182L17.6051 20.9917C17.5706 21.0951 17.5061 21.1726 17.4117 21.2243C17.3166 21.276 17.2259 21.3019 17.1397 21.3019ZM6.79902 17.45C6.60944 17.45 6.42848 17.3983 6.25613 17.2948C6.08379 17.1914 5.95453 17.0449 5.86836 16.8554L4.21384 13.2361L0.594591 11.5816C0.405011 11.4954 0.258518 11.3662 0.155111 11.1938C0.0517037 11.0215 0 10.8405 0 10.6509C0 10.4614 0.0517037 10.2804 0.155111 10.1081C0.258518 9.9357 0.405011 9.80645 0.594591 9.72027L4.21384 8.06576L5.86836 4.44651C5.95453 4.25693 6.08379 4.11043 6.25613 4.00703C6.42848 3.90362 6.60944 3.85192 6.79902 3.85192C6.9886 3.85192 7.16956 3.90362 7.34191 4.00703C7.51425 4.11043 7.64351 4.25693 7.72968 4.44651L9.3842 8.06576L13.0034 9.72027C13.193 9.80645 13.3395 9.9357 13.4429 10.1081C13.5463 10.2804 13.598 10.4614 13.598 10.6509C13.598 10.8405 13.5463 11.0215 13.4429 11.1938C13.3395 11.3662 13.193 11.4954 13.0034 11.5816L9.3842 13.2361L7.72968 16.8554C7.64351 17.0449 7.51425 17.1914 7.34191 17.2948C7.16956 17.3983 6.9886 17.45 6.79902 17.45Z" fill="#909090"/>
</svg>
