<svg width="15" height="15" viewBox="0 0 15 15" fill="none" xmlns="http://www.w3.org/2000/svg">
<path d="M6.45 8.85L4.81875 7.21875C4.68125 7.08125 4.5125 7.0125 4.3125 7.0125C4.1125 7.0125 3.9375 7.0875 3.7875 7.2375C3.65 7.375 3.58125 7.55 3.58125 7.7625C3.58125 7.975 3.65 8.15 3.7875 8.2875L5.925 10.425C6.0625 10.5625 6.2375 10.6312 6.45 10.6312C6.6625 10.6312 6.8375 10.5625 6.975 10.425L11.2313 6.16875C11.3688 6.03125 11.4375 5.8625 11.4375 5.6625C11.4375 5.4625 11.3625 5.2875 11.2125 5.1375C11.075 5 10.9 4.93125 10.6875 4.93125C10.475 4.93125 10.3 5 10.1625 5.1375L6.45 8.85ZM7.5 15C6.4625 15 5.4875 14.803 4.575 14.409C3.6625 14.0155 2.86875 13.4813 2.19375 12.8063C1.51875 12.1313 0.9845 11.3375 0.591 10.425C0.197 9.5125 0 8.5375 0 7.5C0 6.4625 0.197 5.4875 0.591 4.575C0.9845 3.6625 1.51875 2.86875 2.19375 2.19375C2.86875 1.51875 3.6625 0.98425 4.575 0.59025C5.4875 0.19675 6.4625 0 7.5 0C8.5375 0 9.5125 0.19675 10.425 0.59025C11.3375 0.98425 12.1313 1.51875 12.8063 2.19375C13.4813 2.86875 14.0155 3.6625 14.409 4.575C14.803 5.4875 15 6.4625 15 7.5C15 8.5375 14.803 9.5125 14.409 10.425C14.0155 11.3375 13.4813 12.1313 12.8063 12.8063C12.1313 13.4813 11.3375 14.0155 10.425 14.409C9.5125 14.803 8.5375 15 7.5 15Z" fill="#59AB00"/>
</svg>
