<svg width="15" height="15" viewBox="0 0 15 15" fill="none" xmlns="http://www.w3.org/2000/svg">
<path d="M11.25 5.16667C11.25 4.97222 11.1667 4.84028 11 4.77083C10.8333 4.70139 10.6806 4.73611 10.5417 4.875L8.5 6.91667C8.33333 7.08333 8.25 7.27778 8.25 7.5C8.25 7.72222 8.33333 7.91667 8.5 8.08333L10.5417 10.125C10.6806 10.2639 10.8333 10.2986 11 10.2292C11.1667 10.1597 11.25 10.0278 11.25 9.83333L11.25 5.16667ZM13.3333 -1.45705e-07C13.7917 -1.05636e-07 14.184 0.163194 14.5104 0.489583C14.8368 0.815971 15 1.20833 15 1.66667L15 13.3333C15 13.7917 14.8368 14.184 14.5104 14.5104C14.184 14.8368 13.7917 15 13.3333 15L1.66667 15C1.20833 15 0.815971 14.8368 0.489583 14.5104C0.163194 14.184 1.05636e-07 13.7917 1.45705e-07 13.3333L1.16564e-06 1.66666C1.20571e-06 1.20833 0.163195 0.81597 0.489584 0.489582C0.815973 0.163192 1.20833 -1.20571e-06 1.66667 -1.16564e-06L13.3333 -1.45705e-07ZM5.83333 1.66667L5.83333 13.3333L13.3333 13.3333L13.3333 1.66667L5.83333 1.66667Z" fill="black"/>
</svg>
