<svg width="23" height="14" viewBox="0 0 23 14" fill="none" xmlns="http://www.w3.org/2000/svg">
<path d="M0.620958 2.9423L5.47224 0.147615C5.8139 -0.049205 6.37298 -0.049205 6.71464 0.147615L20.0981 7.85747L12.692 2.18331L16.2258 0.147615C16.5675 -0.049205 17.1265 -0.049205 17.4682 0.147615L22.3195 2.9423C22.6611 3.13912 22.9407 3.62276 22.9404 4.01664V9.60362C22.9407 9.99833 22.6611 10.482 22.3195 10.6788L17.4682 13.4735C17.1265 13.6703 16.5675 13.6703 16.2258 13.4735L2.84228 5.76363L10.2484 11.4378L6.71464 13.4735C6.37298 13.6703 5.8139 13.6703 5.47224 13.4735L0.620958 10.6788C0.279299 10.482 -0.000242233 9.99833 -0.000242233 9.60404V4.01706C-0.000242233 3.62276 0.279299 3.13912 0.620958 2.9423Z" fill="black"/>
</svg>
