<svg width="21" height="21" viewBox="0 0 21 21" fill="none" xmlns="http://www.w3.org/2000/svg">
<rect width="20.2875" height="20.2875" rx="10.1437" fill="#7B7B7B"/>
<path d="M10.1462 11.3281L7.6806 13.8006C7.52472 13.9556 7.32634 14.0331 7.08544 14.0331C6.84454 14.0331 6.64615 13.9556 6.49027 13.8006C6.3353 13.6456 6.25781 13.4484 6.25781 13.2089C6.25781 12.9694 6.3353 12.7722 6.49027 12.6172L8.96281 10.1446L6.49027 7.70017C6.3353 7.54428 6.25781 7.34589 6.25781 7.10499C6.25781 6.86408 6.3353 6.66568 6.49027 6.5098C6.64525 6.35483 6.84249 6.27734 7.08199 6.27734C7.3215 6.27734 7.51874 6.35483 7.67371 6.5098L10.1462 8.98234L12.5907 6.5098C12.7466 6.35483 12.945 6.27734 13.1859 6.27734C13.4268 6.27734 13.6252 6.35483 13.7811 6.5098C13.9502 6.67887 14.0347 6.87963 14.0347 7.11209C14.0347 7.34455 13.9502 7.53827 13.7811 7.69324L11.3086 10.1446L13.7811 12.6103C13.9361 12.7662 14.0136 12.9646 14.0136 13.2055C14.0136 13.4464 13.9361 13.6447 13.7811 13.8006C13.612 13.9697 13.4113 14.0542 13.1788 14.0542C12.9463 14.0542 12.7526 13.9697 12.5977 13.8006L10.1462 11.3281Z" fill="white"/>
</svg>
