<svg width="16" height="17" viewBox="0 0 16 17" fill="none" xmlns="http://www.w3.org/2000/svg">
<path d="M13.3434 5.31321C13.2763 5.31321 13.206 5.29308 13.1325 5.25283C13.0584 5.21258 13.008 5.1522 12.9811 5.0717L12.3371 3.66289L10.9283 3.01887C10.8478 2.99203 10.7874 2.94159 10.7472 2.86752C10.7069 2.794 10.6868 2.72369 10.6868 2.6566C10.6868 2.58952 10.7069 2.51894 10.7472 2.44488C10.7874 2.37135 10.8478 2.32117 10.9283 2.29434L12.3371 1.65031L12.9811 0.241509C13.008 0.161006 13.0584 0.100629 13.1325 0.0603773C13.206 0.0201257 13.2763 0 13.3434 0C13.4105 0 13.4811 0.0201257 13.5551 0.0603773C13.6286 0.100629 13.6788 0.161006 13.7057 0.241509L14.3497 1.65031L15.7585 2.29434C15.839 2.32117 15.8994 2.37135 15.9396 2.44488C15.9799 2.51894 16 2.58952 16 2.6566C16 2.72369 15.9799 2.794 15.9396 2.86752C15.8994 2.94159 15.839 2.99203 15.7585 3.01887L14.3497 3.66289L13.7057 5.0717C13.6788 5.1522 13.6286 5.21258 13.5551 5.25283C13.4811 5.29308 13.4105 5.31321 13.3434 5.31321ZM13.3434 16.5836C13.2763 16.5836 13.206 16.5635 13.1325 16.5233C13.0584 16.483 13.008 16.4226 12.9811 16.3421L12.3371 14.9333L10.9283 14.2893C10.8478 14.2625 10.7874 14.212 10.7472 14.138C10.7069 14.0644 10.6868 13.9941 10.6868 13.927C10.6868 13.86 10.7069 13.7897 10.7472 13.7161C10.7874 13.6421 10.8478 13.5916 10.9283 13.5648L12.3371 12.9208L12.9811 11.512C13.008 11.4314 13.0584 11.3711 13.1325 11.3308C13.206 11.2906 13.2763 11.2704 13.3434 11.2704C13.4105 11.2704 13.4811 11.2906 13.5551 11.3308C13.6286 11.3711 13.6788 11.4314 13.7057 11.512L14.3497 12.9208L15.7585 13.5648C15.839 13.5916 15.8994 13.6421 15.9396 13.7161C15.9799 13.7897 16 13.86 16 13.927C16 13.9941 15.9799 14.0644 15.9396 14.138C15.8994 14.212 15.839 14.2625 15.7585 14.2893L14.3497 14.9333L13.7057 16.3421C13.6788 16.4226 13.6286 16.483 13.5551 16.5233C13.4811 16.5635 13.4105 16.5836 13.3434 16.5836ZM5.29308 13.5849C5.14549 13.5849 5.00461 13.5447 4.87044 13.4642C4.73627 13.3836 4.63564 13.2696 4.56855 13.122L3.2805 10.3044L0.462893 9.01635C0.315304 8.94927 0.201258 8.84864 0.120755 8.71447C0.0402516 8.58029 0 8.43941 0 8.29182C0 8.14424 0.0402516 8.00336 0.120755 7.86918C0.201258 7.73501 0.315304 7.63438 0.462893 7.5673L3.2805 6.27925L4.56855 3.46164C4.63564 3.31405 4.73627 3.2 4.87044 3.1195C5.00461 3.03899 5.14549 2.99874 5.29308 2.99874C5.44067 2.99874 5.58155 3.03899 5.71572 3.1195C5.84989 3.2 5.95052 3.31405 6.01761 3.46164L7.30566 6.27925L10.1233 7.5673C10.2709 7.63438 10.3849 7.73501 10.4654 7.86918C10.5459 8.00336 10.5862 8.14424 10.5862 8.29182C10.5862 8.43941 10.5459 8.58029 10.4654 8.71447C10.3849 8.84864 10.2709 8.94927 10.1233 9.01635L7.30566 10.3044L6.01761 13.122C5.95052 13.2696 5.84989 13.3836 5.71572 13.4642C5.58155 13.5447 5.44067 13.5849 5.29308 13.5849Z" fill="white"/>
</svg>
