<svg width="17" height="18" viewBox="0 0 17 18" fill="none" xmlns="http://www.w3.org/2000/svg">
<path d="M13.8848 5.5288C13.815 5.5288 13.7419 5.50785 13.6653 5.46597C13.5883 5.42408 13.5358 5.36126 13.5079 5.27749L12.8377 3.81152L11.3717 3.14136C11.288 3.11344 11.2251 3.06094 11.1832 2.98387C11.1414 2.90736 11.1204 2.83421 11.1204 2.7644C11.1204 2.69459 11.1414 2.62115 11.1832 2.54408C11.2251 2.46757 11.288 2.41536 11.3717 2.38743L12.8377 1.71728L13.5079 0.251309C13.5358 0.167539 13.5883 0.104712 13.6653 0.0628272C13.7419 0.0209423 13.815 0 13.8848 0C13.9546 0 14.0281 0.0209423 14.1051 0.0628272C14.1816 0.104712 14.2339 0.167539 14.2618 0.251309L14.9319 1.71728L16.3979 2.38743C16.4817 2.41536 16.5445 2.46757 16.5864 2.54408C16.6283 2.62115 16.6492 2.69459 16.6492 2.7644C16.6492 2.83421 16.6283 2.90736 16.5864 2.98387C16.5445 3.06094 16.4817 3.11344 16.3979 3.14136L14.9319 3.81152L14.2618 5.27749C14.2339 5.36126 14.1816 5.42408 14.1051 5.46597C14.0281 5.50785 13.9546 5.5288 13.8848 5.5288ZM13.8848 17.2565C13.815 17.2565 13.7419 17.2356 13.6653 17.1937C13.5883 17.1518 13.5358 17.089 13.5079 17.0052L12.8377 15.5393L11.3717 14.8691C11.288 14.8412 11.2251 14.7887 11.1832 14.7116C11.1414 14.6351 11.1204 14.562 11.1204 14.4921C11.1204 14.4223 11.1414 14.3492 11.1832 14.2727C11.2251 14.1956 11.288 14.1431 11.3717 14.1152L12.8377 13.445L13.5079 11.9791C13.5358 11.8953 13.5883 11.8325 13.6653 11.7906C13.7419 11.7487 13.815 11.7277 13.8848 11.7277C13.9546 11.7277 14.0281 11.7487 14.1051 11.7906C14.1816 11.8325 14.2339 11.8953 14.2618 11.9791L14.9319 13.445L16.3979 14.1152C16.4817 14.1431 16.5445 14.1956 16.5864 14.2727C16.6283 14.3492 16.6492 14.4223 16.6492 14.4921C16.6492 14.562 16.6283 14.6351 16.5864 14.7116C16.5445 14.7887 16.4817 14.8412 16.3979 14.8691L14.9319 15.5393L14.2618 17.0052C14.2339 17.089 14.1816 17.1518 14.1051 17.1937C14.0281 17.2356 13.9546 17.2565 13.8848 17.2565ZM5.50785 14.1361C5.35428 14.1361 5.20768 14.0942 5.06806 14.0105C4.92845 13.9267 4.82373 13.808 4.75393 13.6545L3.41361 10.7225L0.481675 9.3822C0.328098 9.31239 0.209424 9.20768 0.125655 9.06806C0.0418849 8.92845 0 8.78185 0 8.62827C0 8.4747 0.0418849 8.3281 0.125655 8.18848C0.209424 8.04887 0.328098 7.94415 0.481675 7.87435L3.41361 6.53403L4.75393 3.60209C4.82373 3.44852 4.92845 3.32984 5.06806 3.24607C5.20768 3.1623 5.35428 3.12042 5.50785 3.12042C5.66143 3.12042 5.80803 3.1623 5.94764 3.24607C6.08726 3.32984 6.19197 3.44852 6.26178 3.60209L7.60209 6.53403L10.534 7.87435C10.6876 7.94415 10.8063 8.04887 10.8901 8.18848C10.9738 8.3281 11.0157 8.4747 11.0157 8.62827C11.0157 8.78185 10.9738 8.92845 10.8901 9.06806C10.8063 9.20768 10.6876 9.31239 10.534 9.3822L7.60209 10.7225L6.26178 13.6545C6.19197 13.808 6.08726 13.9267 5.94764 14.0105C5.80803 14.0942 5.66143 14.1361 5.50785 14.1361Z" fill="#475569"/>
</svg>
