<svg width="36" height="36" viewBox="0 0 36 36" fill="none" xmlns="http://www.w3.org/2000/svg">
<circle cx="18" cy="18" r="18" fill="#F4D150"/>
<mask id="mask0_6492_8997" style="mask-type:alpha" maskUnits="userSpaceOnUse" x="0" y="0" width="36" height="36">
<circle cx="18" cy="18" r="18" fill="#FFEDEF"/>
</mask>
<g mask="url(#mask0_6492_8997)">
<path d="M23.2435 35.7C21.8793 33.8052 20.8119 29.1947 20.6856 27.3631L14.1961 24.5684L11.4961 35.7H23.2435Z" fill="#FC909F" stroke="black" stroke-width="0.378947"/>
<mask id="mask1_6492_8997" style="mask-type:alpha" maskUnits="userSpaceOnUse" x="11" y="24" width="13" height="12">
<path d="M23.2435 35.7C21.8793 33.8052 20.8119 29.1947 20.6856 27.3631L14.1961 24.5684L11.4961 35.7H23.2435Z" fill="#FFEDEF"/>
</mask>
<g mask="url(#mask1_6492_8997)">
<ellipse cx="20.275" cy="23.9683" rx="5.58947" ry="5.11579" fill="black"/>
</g>
<g clip-path="url(#clip0_6492_8997)">
<path d="M23.1165 34.3415C21.7523 32.4467 20.6849 28.7836 20.5586 26.952L14.0691 24.1572L11.3691 34.3415H23.1165Z" fill="#F9C9B6" stroke="black" stroke-width="0.378947"/>
<mask id="mask2_6492_8997" style="mask-type:alpha" maskUnits="userSpaceOnUse" x="11" y="24" width="13" height="12">
<path d="M23.1165 35.2888C21.7523 33.3941 20.6849 28.7836 20.5586 26.952L14.0691 24.1572L11.3691 35.2888H23.1165Z" fill="#F9C9B6"/>
</mask>
<g mask="url(#mask2_6492_8997)">
<g style="mix-blend-mode:multiply">
<ellipse cx="20.275" cy="23.9683" rx="5.58947" ry="5.11579" fill="black"/>
</g>
</g>
<mask id="path-9-inside-1_6492_8997" fill="white">
<path d="M15.498 6.35645C19.4363 5.41293 23.3919 7.82716 24.3604 11.7529H24.3623L25.9297 18.2988C25.9328 18.3116 25.9374 18.3241 25.9404 18.3369C25.9432 18.3485 25.9445 18.3605 25.9473 18.3721L25.9717 18.4717H25.9688C26.83 22.3816 24.405 26.2761 20.4951 27.2129C16.5855 28.1496 12.6588 25.7775 11.6543 21.9023L11.6514 21.9033L10.041 15.1846L10.042 15.1836C9.12614 11.2451 11.5597 7.30004 15.498 6.35645Z"/>
</mask>
<path d="M15.498 6.35645C19.4363 5.41293 23.3919 7.82716 24.3604 11.7529H24.3623L25.9297 18.2988C25.9328 18.3116 25.9374 18.3241 25.9404 18.3369C25.9432 18.3485 25.9445 18.3605 25.9473 18.3721L25.9717 18.4717H25.9688C26.83 22.3816 24.405 26.2761 20.4951 27.2129C16.5855 28.1496 12.6588 25.7775 11.6543 21.9023L11.6514 21.9033L10.041 15.1846L10.042 15.1836C9.12614 11.2451 11.5597 7.30004 15.498 6.35645Z" fill="#F9C9B6"/>
<path d="M15.498 6.35645L15.4098 5.98793L15.4098 5.98793L15.498 6.35645ZM24.3604 11.7529L23.9924 11.8437L24.0635 12.1319H24.3604V11.7529ZM24.3623 11.7529L24.7308 11.6647L24.6612 11.374H24.3623V11.7529ZM25.9297 18.2988L25.5612 18.3871L25.5616 18.3891L25.9297 18.2988ZM25.9404 18.3369L26.3089 18.2486V18.2486L25.9404 18.3369ZM25.9473 18.3721L25.5783 18.4586L25.5792 18.4623L25.9473 18.3721ZM25.9717 18.4717V18.8506H26.4547L26.3397 18.3815L25.9717 18.4717ZM25.9688 18.4717V18.0927H25.4972L25.5987 18.5532L25.9688 18.4717ZM20.4951 27.2129L20.5834 27.5814H20.5834L20.4951 27.2129ZM11.6543 21.9023L12.0211 21.8073L11.9193 21.4146L11.5345 21.5428L11.6543 21.9023ZM11.6514 21.9033L11.2829 21.9916L11.3792 22.3935L11.7712 22.2628L11.6514 21.9033ZM10.041 15.1846L9.77306 14.9166L9.62306 15.0666L9.67251 15.2729L10.041 15.1846ZM10.042 15.1836L10.3099 15.4515L10.4588 15.3027L10.4111 15.0978L10.042 15.1836ZM15.498 6.35645L15.5863 6.72496C19.3218 5.83004 23.0738 8.11989 23.9924 11.8437L24.3604 11.7529L24.7283 11.6622C23.71 7.53443 19.5509 4.99582 15.4098 5.98793L15.498 6.35645ZM24.3604 11.7529V12.1319H24.3623V11.7529V11.374H24.3604V11.7529ZM24.3623 11.7529L23.9938 11.8412L25.5612 18.3871L25.9297 18.2988L26.2982 18.2106L24.7308 11.6647L24.3623 11.7529ZM25.9297 18.2988L25.5616 18.3891C25.564 18.3988 25.5664 18.4072 25.5682 18.4134C25.5699 18.4193 25.5716 18.4249 25.5723 18.4275C25.5728 18.4291 25.5731 18.43 25.5733 18.4307C25.5735 18.4314 25.5736 18.4316 25.5735 18.4314C25.5735 18.4312 25.5728 18.4289 25.5719 18.4252L25.9404 18.3369L26.3089 18.2486C26.3065 18.2386 26.3041 18.2298 26.3023 18.2233C26.3005 18.217 26.2987 18.2112 26.2978 18.2083C26.2973 18.2065 26.297 18.2055 26.2967 18.2045C26.2966 18.2041 26.2965 18.2038 26.2964 18.2036C26.2964 18.2034 26.2964 18.2033 26.2964 18.2033C26.2964 18.2033 26.2965 18.2038 26.2967 18.2047C26.297 18.2055 26.2973 18.2069 26.2977 18.2086L25.9297 18.2988ZM25.9404 18.3369L25.5719 18.4252C25.5708 18.4206 25.5702 18.4174 25.57 18.4166C25.5699 18.416 25.5699 18.416 25.5705 18.4192C25.5709 18.4215 25.5719 18.4272 25.573 18.4333C25.5742 18.4397 25.576 18.4485 25.5783 18.4586L25.9473 18.3721L26.3162 18.2855C26.3172 18.2898 26.3178 18.2928 26.3179 18.2933C26.3179 18.2935 26.3179 18.2933 26.3172 18.2897C26.3168 18.2871 26.3158 18.2812 26.3145 18.2748C26.3133 18.2681 26.3114 18.259 26.3089 18.2486L25.9404 18.3369ZM25.9473 18.3721L25.5792 18.4623L25.6036 18.5619L25.9717 18.4717L26.3397 18.3815L26.3153 18.2819L25.9473 18.3721ZM25.9717 18.4717V18.0927H25.9688V18.4717V18.8506H25.9717V18.4717ZM25.9688 18.4717L25.5987 18.5532C26.4156 22.2619 24.1153 25.9558 20.4068 26.8444L20.4951 27.2129L20.5834 27.5814C24.6946 26.5963 27.2444 22.5013 26.3388 18.3902L25.9688 18.4717ZM20.4951 27.2129L20.4068 26.8444C16.6986 27.7328 12.9739 25.4829 12.0211 21.8073L11.6543 21.9023L11.2875 21.9974C12.3437 26.0721 16.4725 28.5663 20.5834 27.5814L20.4951 27.2129ZM11.6543 21.9023L11.5345 21.5428L11.5315 21.5438L11.6514 21.9033L11.7712 22.2628L11.7741 22.2618L11.6543 21.9023ZM11.6514 21.9033L12.0199 21.815L10.4095 15.0962L10.041 15.1846L9.67251 15.2729L11.2829 21.9916L11.6514 21.9033ZM10.041 15.1846L10.309 15.4525L10.3099 15.4515L10.042 15.1836L9.77404 14.9156L9.77306 14.9166L10.041 15.1846ZM10.042 15.1836L10.4111 15.0978C9.54238 11.362 11.8507 7.61998 15.5863 6.72496L15.498 6.35645L15.4098 5.98793C11.2687 6.98009 8.70989 11.1282 9.67289 15.2694L10.042 15.1836Z" fill="black" mask="url(#path-9-inside-1_6492_8997)"/>
</g>
<path d="M17.0059 20.8896C17.2427 22.5002 19.9427 23.2581 22.4059 21.4107" stroke="black" stroke-width="0.378947"/>
<path d="M20.748 12.5252C21.2849 12.2726 22.548 12.042 23.3059 13.141" stroke="black" stroke-width="0.378947" stroke-linecap="round"/>
<path d="M13.6027 14.9224C13.7989 14.3625 14.52 13.3001 15.835 13.5299" stroke="black" stroke-width="0.378947" stroke-linecap="round"/>
<path d="M12.916 5.32324C14.6568 4.61792 16.385 4.4944 17.3174 4.59375L17.3242 4.59473H17.332C19.8585 4.66908 21.823 5.67433 23.2129 6.90137C24.5435 8.07616 25.3369 9.44601 25.5967 10.3799C25.212 10.5992 24.5545 10.7895 23.7148 10.9443C22.7982 11.1133 21.6972 11.2372 20.5742 11.3252C18.3285 11.5011 16.0091 11.5343 14.9258 11.5107L14.3506 11.498L14.8057 11.8496C15.0423 12.0324 15.3573 12.1595 15.6904 12.249C16.026 12.3392 16.3934 12.3944 16.7451 12.4258C17.1069 12.4581 17.4596 12.4654 17.752 12.458C16.749 13.2311 15.4734 13.8269 14.2148 14.2676C12.761 14.7766 11.347 15.0743 10.4414 15.207L10.2383 15.2373L10.2842 15.4375C10.7419 17.4106 11.7537 21.5143 11.9424 22.3066C12.0451 22.738 12.3691 23.3531 12.7383 23.9199C13.0785 24.4422 13.4756 24.9504 13.8105 25.2637L13.0674 28.2783H10.2656C11.0557 27.0739 11.2235 25.6831 11.0625 24.207C10.8882 22.6094 10.3276 20.8906 9.73633 19.1699C9.14221 17.441 8.51685 15.7088 8.19434 14.0566C7.87221 12.4061 7.858 10.8611 8.46289 9.50293C9.44238 7.30384 11.1793 6.027 12.916 5.32324Z" fill="white" stroke="black" stroke-width="0.378947"/>
<ellipse cx="16.3803" cy="15.6351" rx="0.852632" ry="0.947368" transform="rotate(-6.77646 16.3803 15.6351)" fill="black"/>
<ellipse cx="22.4452" cy="14.6874" rx="0.852632" ry="0.947368" transform="rotate(-6.27568 22.4452 14.6874)" fill="black"/>
<path d="M19.7387 16.0559C19.9233 17.3693 20.725 18.309 20.725 18.309C20.725 18.309 20.4758 18.918 19.5113 18.8622" stroke="black" stroke-width="0.378947"/>
<path d="M12.4121 20.5137L12.3623 20.5684C12.0157 20.9418 11.5601 21.2207 11.041 21.2207C10.7268 21.2207 10.4317 21.1749 10.2012 21.0439C9.95939 20.9065 9.8026 20.6834 9.76562 20.374C9.75281 20.2664 9.76232 20.1641 9.79004 20.0693C9.45354 19.7742 9.24958 19.3305 9.19922 18.7266C9.1476 18.1071 9.34279 17.6104 9.70312 17.2705C10.0595 16.9344 10.5594 16.7686 11.0938 16.7686C11.5382 16.7686 11.9685 16.8874 12.3223 17.1045L12.4121 17.1602V20.5137Z" stroke="black" stroke-width="0.378947"/>
<path d="M11.0918 16.958C12.0857 16.9581 12.9862 17.6006 12.9863 18.5684C12.9863 18.6381 12.9798 18.7068 12.9717 18.7744C12.9095 19.7176 12.0844 21.0311 11.0391 21.0312C10.4388 21.0312 10.0119 20.8516 9.95215 20.3516C9.93657 20.2208 9.96119 20.1061 10.0176 20.0088C9.66657 19.7582 9.43948 19.3435 9.38672 18.7109C9.29199 17.5741 10.0977 16.958 11.0918 16.958Z" fill="#F9C9B6"/>
<path d="M11.5119 17.7634C11.1329 17.5897 10.2993 17.4981 9.99609 18.5213" stroke="black" stroke-width="0.378947"/>
<path d="M10.5176 17.8105C10.7228 17.9842 11.1144 18.5211 11.0386 19.279" stroke="black" stroke-width="0.378947"/>
<path d="M17.4326 30.4043C18.3282 30.4043 19.0251 30.5414 19.6865 30.7217C20.3372 30.899 20.9971 31.1332 21.748 31.3057L21.7607 31.3086L21.7744 31.3096C26.1435 31.6699 28.7615 33.6119 30.6631 36.2842H4.77734C6.32144 33.5053 8.51414 31.7346 12.0742 30.9229C13.5913 30.577 15.3591 30.4043 17.4326 30.4043Z" fill="#77311D" stroke="black" stroke-width="0.378947"/>
<path d="M10.9827 31.1284L11.8498 29.2718C11.8705 29.2275 11.922 29.2064 11.9681 29.2227C15.5612 30.4946 18.8298 30.405 21.859 29.5618C21.8971 29.5512 21.9378 29.5652 21.9612 29.5972L23.2811 31.4021C23.3174 31.4517 23.2989 31.5217 23.2417 31.5442C20.0579 32.7944 14.0836 32.5818 11.0286 31.2537C10.9801 31.2326 10.9603 31.1762 10.9827 31.1284Z" fill="white" stroke="black" stroke-width="0.378947"/>
</g>
<defs>
<clipPath id="clip0_6492_8997">
<rect width="18.9474" height="30.3158" fill="white" transform="translate(8.52734 4.07324)"/>
</clipPath>
</defs>
</svg>
