<svg width="36" height="36" viewBox="0 0 36 36" fill="none" xmlns="http://www.w3.org/2000/svg">
<circle cx="18" cy="18" r="18" fill="#554BBD"/>
<mask id="mask0_6492_9044" style="mask-type:alpha" maskUnits="userSpaceOnUse" x="0" y="0" width="36" height="36">
<circle cx="18" cy="18" r="18" fill="#FFEDEF"/>
</mask>
<g mask="url(#mask0_6492_9044)">
<g clip-path="url(#clip0_6492_9044)">
<path d="M23.1155 34.3424C21.7513 32.4477 20.684 28.7846 20.5576 26.953L14.0682 24.1582L11.3682 34.3424H23.1155Z" fill="#AC6651" stroke="black" stroke-width="0.378947"/>
<mask id="mask1_6492_9044" style="mask-type:alpha" maskUnits="userSpaceOnUse" x="11" y="24" width="13" height="12">
<path d="M23.1155 35.2898C21.7513 33.3951 20.684 28.7846 20.5576 26.953L14.0682 24.1582L11.3682 35.2898H23.1155Z" fill="#AC6651"/>
</mask>
<g mask="url(#mask1_6492_9044)">
<g style="mix-blend-mode:multiply">
<ellipse cx="20.274" cy="23.9693" rx="5.58947" ry="5.11579" fill="black"/>
</g>
</g>
<mask id="path-6-inside-1_6492_9044" fill="white">
<path d="M15.4971 6.35742C19.4353 5.41391 23.391 7.82814 24.3594 11.7539H24.3613L25.9717 18.4727H25.9678C26.8291 22.3826 24.404 26.277 20.4941 27.2139C16.5846 28.1506 12.6578 25.7785 11.6533 21.9033L11.6504 21.9043L10.0586 15.2588C10.0565 15.2503 10.0538 15.2419 10.0518 15.2334C10.0495 15.224 10.0471 15.2145 10.0449 15.2051L10.041 15.1855V15.1846C9.12516 11.2461 11.5587 7.30102 15.4971 6.35742Z"/>
</mask>
<path d="M15.4971 6.35742C19.4353 5.41391 23.391 7.82814 24.3594 11.7539H24.3613L25.9717 18.4727H25.9678C26.8291 22.3826 24.404 26.277 20.4941 27.2139C16.5846 28.1506 12.6578 25.7785 11.6533 21.9033L11.6504 21.9043L10.0586 15.2588C10.0565 15.2503 10.0538 15.2419 10.0518 15.2334C10.0495 15.224 10.0471 15.2145 10.0449 15.2051L10.041 15.1855V15.1846C9.12516 11.2461 11.5587 7.30102 15.4971 6.35742Z" fill="#AC6651"/>
<path d="M15.4971 6.35742L15.4088 5.9889L15.4088 5.9889L15.4971 6.35742ZM24.3594 11.7539L23.9915 11.8447L24.0625 12.1329H24.3594V11.7539ZM24.3613 11.7539L24.7298 11.6656L24.6602 11.375H24.3613V11.7539ZM25.9717 18.4727V18.8516H26.4522L26.3402 18.3843L25.9717 18.4727ZM25.9678 18.4727V18.0937H25.4963L25.5977 18.5542L25.9678 18.4727ZM20.4941 27.2139L20.5824 27.5824H20.5824L20.4941 27.2139ZM11.6533 21.9033L12.0201 21.8082L11.9184 21.4155L11.5335 21.5438L11.6533 21.9033ZM11.6504 21.9043L11.2819 21.9926L11.3781 22.3945L11.7702 22.2638L11.6504 21.9043ZM10.0586 15.2588L10.4271 15.1705L10.4268 15.1692L10.0586 15.2588ZM10.0518 15.2334L9.68324 15.3217L9.68324 15.3217L10.0518 15.2334ZM10.0449 15.2051L9.67312 15.2794L9.67606 15.2919L10.0449 15.2051ZM10.041 15.1855H9.66207V15.2231L9.66943 15.2599L10.041 15.1855ZM10.041 15.1846H10.42V15.1411L10.4101 15.0987L10.041 15.1846ZM15.4971 6.35742L15.5854 6.72594C19.3208 5.83102 23.0729 8.12087 23.9915 11.8447L24.3594 11.7539L24.7273 11.6631C23.7091 7.5354 19.5499 4.9968 15.4088 5.9889L15.4971 6.35742ZM24.3594 11.7539V12.1329H24.3613V11.7539V11.375H24.3594V11.7539ZM24.3613 11.7539L23.9928 11.8422L25.6032 18.561L25.9717 18.4727L26.3402 18.3843L24.7298 11.6656L24.3613 11.7539ZM25.9717 18.4727V18.0937H25.9678V18.4727V18.8516H25.9717V18.4727ZM25.9678 18.4727L25.5977 18.5542C26.4147 22.2628 24.1143 25.9568 20.4058 26.8454L20.4941 27.2139L20.5824 27.5824C24.6937 26.5973 27.2435 22.5023 26.3378 18.3911L25.9678 18.4727ZM20.4941 27.2139L20.4058 26.8454C16.6976 27.7338 12.9729 25.4839 12.0201 21.8082L11.6533 21.9033L11.2865 21.9984C12.3427 26.073 16.4715 28.5673 20.5824 27.5824L20.4941 27.2139ZM11.6533 21.9033L11.5335 21.5438L11.5306 21.5448L11.6504 21.9043L11.7702 22.2638L11.7732 22.2628L11.6533 21.9033ZM11.6504 21.9043L12.0189 21.816L10.4271 15.1705L10.0586 15.2588L9.69007 15.3471L11.2819 21.9926L11.6504 21.9043ZM10.0586 15.2588L10.4268 15.1692C10.4252 15.1625 10.4236 15.1567 10.4225 15.1524C10.4213 15.1484 10.4203 15.1446 10.4198 15.1429C10.4191 15.1406 10.4191 15.1403 10.4191 15.1404C10.4191 15.1406 10.4196 15.1424 10.4203 15.1451L10.0518 15.2334L9.68324 15.3217C9.68491 15.3286 9.68649 15.3347 9.68771 15.3391C9.68888 15.3434 9.69 15.3474 9.69055 15.3493C9.69089 15.3505 9.69107 15.3512 9.69124 15.3518C9.6914 15.3523 9.69144 15.3525 9.69143 15.3525C9.69143 15.3524 9.69099 15.3509 9.69038 15.3484L10.0586 15.2588ZM10.0518 15.2334L10.4203 15.1451C10.4166 15.1296 10.4162 15.1283 10.4138 15.1182L10.0449 15.2051L9.67606 15.2919C9.67814 15.3007 9.68242 15.3183 9.68324 15.3217L10.0518 15.2334ZM10.0449 15.2051L10.4165 15.1308L10.4126 15.1112L10.041 15.1855L9.66943 15.2599L9.67333 15.2794L10.0449 15.2051ZM10.041 15.1855H10.42V15.1846H10.041H9.66207V15.1855H10.041ZM10.041 15.1846L10.4101 15.0987C9.5414 11.363 11.8497 7.62096 15.5854 6.72594L15.4971 6.35742L15.4088 5.9889C11.2677 6.98107 8.70892 11.1292 9.67192 15.2704L10.041 15.1846Z" fill="black" mask="url(#path-6-inside-1_6492_9044)"/>
</g>
<path d="M17.0346 20.9584L17.5533 21.0153C18.2277 21.0804 19.2934 21.1501 20.0622 21.0444C20.9964 20.9158 22.3209 20.4138 22.7218 20.2558L22.7867 20.2389C22.939 20.2175 23.0944 20.3228 23.1085 20.4943C23.1396 20.8712 23.1042 21.2511 23.0033 21.6163C22.8907 22.0239 22.6986 22.4056 22.4387 22.739C22.1787 23.0725 21.8552 23.3517 21.4874 23.5603C21.1194 23.7689 20.7132 23.9031 20.2934 23.955C19.8737 24.0069 19.4478 23.9757 19.0402 23.8631C18.6326 23.7504 18.251 23.5585 17.9175 23.2984C17.584 23.0383 17.3048 22.715 17.0962 22.3471C16.9092 22.0172 16.7823 21.6571 16.7206 21.2836C16.6931 21.1165 16.8143 20.9751 16.9676 20.9579L17.0346 20.9584Z" fill="black" stroke="black" stroke-width="0.378947"/>
<mask id="mask2_6492_9044" style="mask-type:alpha" maskUnits="userSpaceOnUse" x="16" y="20" width="7" height="4">
<path d="M22.9069 20.3864C22.9558 20.7815 22.9264 21.1824 22.8204 21.5661C22.7143 21.9498 22.5337 22.3089 22.2889 22.6228C22.0441 22.9368 21.7399 23.1994 21.3935 23.3958C21.0472 23.5922 20.6656 23.7184 20.2705 23.7673C19.8754 23.8161 19.4746 23.7867 19.0908 23.6807C18.7071 23.5747 18.348 23.3941 18.0341 23.1493C17.7201 22.9045 17.4575 22.6002 17.2611 22.2539C17.0648 21.9076 16.9385 21.526 16.8896 21.1309L22.9069 20.3864Z" fill="#171921"/>
</mask>
<g mask="url(#mask2_6492_9044)">
<circle cx="20.3233" cy="24.1874" r="2.03684" transform="rotate(-7.05286 20.3233 24.1874)" fill="#FC909F"/>
</g>
<path d="M20.748 12.5252C21.2849 12.2726 22.548 12.042 23.3059 13.141" stroke="black" stroke-width="0.378947" stroke-linecap="round"/>
<path d="M13.6027 14.9224C13.7989 14.3625 14.52 13.3001 15.835 13.5299" stroke="black" stroke-width="0.378947" stroke-linecap="round"/>
<path opacity="0.35" d="M23.3993 10.2474C22.6414 9.64108 21.3309 9.58425 20.794 9.63162L20.0361 7.12109C21.3246 7.42425 23.0677 9.39478 23.3993 10.2474Z" fill="#717376"/>
<path d="M13.7174 4.05111C13.7174 4.05111 14.261 3.67579 16.5551 3.0978C18.8493 2.51981 19.6858 2.7456 19.6858 2.7456L20.8026 9.64545C20.8026 9.64545 20.041 9.62902 18.1469 10.0427C16.2528 10.4564 15.3462 10.9585 15.3462 10.9585L13.7174 4.05111Z" fill="#171921"/>
<path d="M10.2311 11.1477C9.58684 7.2067 12.4416 4.68985 13.7363 3.99512L15.3468 10.9583C13.5279 7.2067 11.0521 9.52143 10.2311 11.1477Z" fill="#171921"/>
<path opacity="0.35" d="M11.983 15.3166C11.3009 12.7398 14.0672 11.3534 15.3462 10.9587C14.683 9.41133 13.1672 8.02186 11.3199 9.72719C9.6146 12.6166 10.2778 14.843 10.7988 16.5482L11.983 15.3166Z" fill="#717376"/>
<path d="M16.248 14.96C16.7321 14.9024 17.1768 15.1922 17.3344 15.6324C17.3593 15.7019 17.2891 15.7622 17.2178 15.7433C17.0072 15.6873 16.7709 15.6691 16.5254 15.6982C16.1085 15.7479 15.7493 15.9231 15.5158 16.1615C15.4614 16.2171 15.3641 16.1998 15.3534 16.1227C15.3524 16.1154 15.3515 16.108 15.3506 16.1006C15.2837 15.5379 15.6854 15.0271 16.248 14.96Z" fill="black"/>
<path d="M22.3135 14.0254C22.7926 13.9685 23.2326 14.2547 23.389 14.6901C23.414 14.7596 23.3439 14.8199 23.2725 14.801C23.0645 14.7459 22.8314 14.7281 22.5889 14.7568C22.1764 14.8058 21.8206 14.9787 21.5891 15.2144C21.5346 15.2699 21.4371 15.2526 21.4264 15.1755C21.4255 15.1688 21.4246 15.1621 21.4238 15.1553C21.3576 14.5978 21.756 14.0918 22.3135 14.0254Z" fill="#171921"/>
<path d="M18.9738 16.9502C19.4683 16.762 20.3308 16.8188 20.2777 17.7756C20.2305 18.6259 19.3581 18.7948 19.0801 18.5965" stroke="black" stroke-width="0.378947"/>
<path d="M11.7947 17.0694C11.574 16.9967 11.3357 16.958 11.0917 16.958C10.0976 16.958 9.29176 17.5738 9.38649 18.7106C9.48516 19.8948 10.1924 20.3212 11.1865 20.3212C11.2971 20.3212 11.4054 20.3115 11.5105 20.2928C11.6252 20.2726 11.7361 20.2417 11.8421 20.2013" stroke="#171921" stroke-width="0.757895"/>
<path d="M11.8894 20.1825C11.6735 20.2718 11.4359 20.3212 11.1865 20.3212C10.1924 20.3212 9.48516 19.8949 9.38649 18.7106C9.29176 17.5738 10.0976 16.958 11.0917 16.958C11.389 16.958 11.6779 17.0155 11.9368 17.1219L11.8894 20.1825Z" fill="#AC6651"/>
<path d="M11.5109 17.7634C11.132 17.5897 10.2983 17.4981 9.99512 18.5213" stroke="#171921" stroke-width="0.378947"/>
<path d="M10.5156 17.8105C10.7209 17.9842 11.1125 18.5211 11.0367 19.279" stroke="#171921" stroke-width="0.378947"/>
<path d="M12.0742 30.9238C12.226 30.8892 12.4325 30.9 12.6904 30.96C12.9457 31.0193 13.2369 31.1237 13.5508 31.2617C14.1785 31.5377 14.8795 31.9396 15.5381 32.3564C16.1957 32.7727 16.8064 33.2007 17.2529 33.5244C17.476 33.6861 17.6582 33.8219 17.7842 33.917C17.8469 33.9644 17.8956 34.0019 17.9287 34.0273C17.9453 34.0401 17.9584 34.0501 17.9668 34.0566C17.9706 34.0596 17.9736 34.0619 17.9756 34.0635C17.9766 34.0643 17.978 34.065 17.9785 34.0654L17.9795 34.0664L18.1426 34.1934L18.2549 34.0195L18.2559 34.0176C18.2567 34.0163 18.2581 34.0142 18.2598 34.0117C18.2633 34.0064 18.2684 33.9978 18.2754 33.9873C18.2896 33.966 18.3111 33.9346 18.3389 33.8945C18.3946 33.814 18.4763 33.6984 18.5801 33.5605C18.7879 33.2844 19.0824 32.92 19.4287 32.5635C19.7759 32.206 20.1698 31.8622 20.5771 31.623C20.986 31.3831 21.39 31.2591 21.7646 31.3096C25.7851 31.8517 28.7435 33.6327 30.6641 36.2852H4.77734C6.32145 33.5064 8.5142 31.7356 12.0742 30.9238Z" fill="#6BD9E9" stroke="black" stroke-width="0.378947"/>
<path d="M10.9535 31.1771L11.443 29.3551C11.4628 29.2814 11.5583 29.2605 11.6098 29.3169C13.0179 30.8577 14.7948 30.7973 15.3846 30.7266C15.4647 30.717 15.5274 30.8046 15.4898 30.876L14.2433 33.2399C14.2242 33.2762 14.1851 33.2961 14.145 33.2877C13.7709 33.2098 11.907 32.7542 10.9645 31.2512C10.9507 31.2292 10.9468 31.2022 10.9535 31.1771Z" fill="#D2EFF3" stroke="black" stroke-width="0.378947"/>
<path d="M23.3236 31.168L22.2265 29.3223C22.1892 29.2596 22.0975 29.2606 22.0578 29.3218C21.5143 30.1589 20.5769 30.5445 20.2491 30.6584C20.1901 30.6789 20.1631 30.749 20.1949 30.8027L21.4741 32.9641C21.4932 32.9963 21.5293 33.0138 21.5653 33.0036C21.7675 32.946 22.4615 32.6557 23.3223 31.2665C23.3408 31.2366 23.3415 31.1982 23.3236 31.168Z" fill="#D2EFF3" stroke="black" stroke-width="0.378947"/>
<path d="M16.342 32.8269L15.4893 30.79L14.8262 32.2111L16.342 32.8269Z" fill="black" stroke="black" stroke-width="0.378947" stroke-linejoin="round"/>
<path d="M19.327 32.7322L20.1796 30.6953L20.8428 32.1164L19.327 32.7322Z" fill="black" stroke="black" stroke-width="0.378947" stroke-linejoin="round"/>
<path d="M12.6476 28.9902L11.5107 29.2744L12.4581 29.8902L12.6476 28.9902Z" fill="black" stroke="black" stroke-width="0.378947" stroke-linejoin="round"/>
<path d="M21.1268 28.9902L22.1689 29.2744L21.5058 29.8902L21.1268 28.9902Z" fill="black" stroke="black" stroke-width="0.378947" stroke-linejoin="round"/>
</g>
<defs>
<clipPath id="clip0_6492_9044">
<rect width="18.9474" height="30.3158" fill="white" transform="translate(8.52637 4.07422)"/>
</clipPath>
</defs>
</svg>
