<svg width="12" height="13" viewBox="0 0 12 13" fill="none" xmlns="http://www.w3.org/2000/svg">
<path d="M6 -0.000153971C6.10526 -0.00015398 6.20395 0.0164266 6.29605 0.0495839C6.38816 0.0822158 6.47368 0.138006 6.55263 0.216953L11.7632 5.42748C11.9211 5.58537 12 5.773 12 5.99037C12 6.20721 11.9211 6.39458 11.7632 6.55248C11.6053 6.71037 11.4211 6.78932 11.2105 6.78932C11 6.78932 10.8158 6.71037 10.6579 6.55248L6.78947 2.68406L6.78947 11.5262C6.78947 11.7498 6.71368 11.9341 6.56211 12.0788C6.41105 12.2235 6.22368 12.2959 6 12.2959C5.77632 12.2959 5.58868 12.2204 5.43711 12.0693C5.28605 11.9177 5.21053 11.7301 5.21053 11.5064L5.21053 2.68406L1.34211 6.55248C1.18421 6.71037 1 6.78932 0.789473 6.78932C0.578947 6.78932 0.394737 6.71037 0.236843 6.55248C0.0789475 6.39458 -5.3229e-07 6.20721 -5.51247e-07 5.99037C-5.7025e-07 5.773 0.0789474 5.58537 0.236843 5.42748L5.44737 0.216953C5.52632 0.138006 5.61184 0.0822159 5.70395 0.049584C5.79605 0.0164266 5.89474 -0.000153962 6 -0.000153971Z" fill="white"/>
</svg>
